<?xml version="1.0" encoding="utf-8"?>
<!-- Generator: Adobe Illustrator 19.1.0, SVG Export Plug-In . SVG Version: 6.00 Build 0)  -->
<svg version="1.1" id="Layer_1" xmlns="http://www.w3.org/2000/svg" xmlns:xlink="http://www.w3.org/1999/xlink" x="0px" y="0px"
	 viewBox="-433 251.3 331.1 245.3" style="enable-background:new -433 251.3 331.1 245.3;" xml:space="preserve">
<style type="text/css">
	.st0{fill:none;}
	.st1{fill:#F7E7D0;}
	.st2{fill:#F15A24;}
	.st3{fill:none;stroke:#333333;stroke-width:3;stroke-miterlimit:10;}
	.st4{fill:#333333;}
	.st5{fill:#494949;}
	.st6{fill:url(#SVGID_2_);}
	.st7{fill:#666666;}
	.st8{fill:#29ABE2;}
</style>
<pattern  x="-433" y="551" width="205.3" height="205.3" patternUnits="userSpaceOnUse" id="SVGID_1_" viewBox="0 -205.3 205.3 205.3" style="overflow:visible;">
	<g>
		<polygon class="st0" points="0,0 205.3,0 205.3,-205.3 0,-205.3 		"/>
		<g>
			<polygon class="st0" points="0,-205.3 205.3,-205.3 205.3,0 0,0 			"/>
			<polygon class="st1" points="205.3,-205.3 0,-205.3 0,0 205.3,0 			"/>
		</g>
	</g>
</pattern>
<g>
	<polygon class="st2" points="-269.3,371.1 -262,355.8 -260.7,372.3 -244.5,368.9 -256.8,380.4 -244,390.8 -260.4,387.5 
		-260.7,404.8 -268.5,389.2 -282.1,400.6 -274.9,384.5 -292.1,381.1 -274.9,376.3 -283.1,361.2 	"/>
	<line class="st3" x1="-268.3" y1="424.2" x2="-268.3" y2="328.2"/>
	<g>
		<g>
			<circle class="st4" cx="-267.6" cy="462.2" r="34.4"/>
			<path class="st5" d="M-292,438c13.4-13.5,35.1-13.6,48.6-0.2s13.6,35.1,0.2,48.6"/>
		</g>
		<rect x="-275.4" y="422.2" class="st5" width="14.3" height="14.3"/>
	</g>
	
		<pattern  id="SVGID_2_" xlink:href="#SVGID_1_" patternTransform="matrix(0.678 0.1028 3.135367e-02 -0.2067 -2624.427 -755.8152)">
	</pattern>
	<polygon class="st6" points="-265.3,373.2 -255.3,364.4 -259.5,376.8 -246.8,379.2 -259.1,383.8 -253,395.2 -263.9,387.8 
		-269.4,400.2 -270.3,386.5 -283.6,390.6 -273.4,381.2 -284.8,373.5 -271,375.3 -272.3,361.8 	"/>
	<g>
		<ellipse class="st7" cx="-267.5" cy="299.8" rx="34.4" ry="28.9"/>
		<path class="st4" d="M-310.5,272.6l-90.6,2.9c-3.3,0.1-6,2.8-6,6.2l0,0c0,3.3,2.6,6.1,6,6.2l90.6,2.9"/>
		<rect x="-384.9" y="257.6" class="st4" width="4" height="19.8"/>
		<g>
			<ellipse class="st8" cx="-358.3" cy="259.1" rx="25.4" ry="2.7"/>
			<ellipse class="st8" cx="-407.6" cy="259.1" rx="25.4" ry="2.7"/>
		</g>
		<circle class="st4" cx="-382.9" cy="255.2" r="3.9"/>
		<rect x="-154" y="257.6" class="st4" width="4" height="19.8"/>
		<path class="st4" d="M-224.4,272.6l90.6,2.9c3.3,0.1,6,2.8,6,6.2l0,0c0,3.3-2.6,6.1-6,6.2l-90.6,2.9"/>
		<g>
			<ellipse class="st8" cx="-176.6" cy="259.1" rx="25.4" ry="2.7"/>
			<ellipse class="st8" cx="-127.3" cy="259.1" rx="25.4" ry="2.7"/>
		</g>
		<path class="st4" d="M-231.2,314.3h-72.5c-7.2,0-13.1-5.8-13.1-13.1v-34.9c0-7.2,5.8-13.1,13.1-13.1h72.5
			c7.2,0,13.1,5.8,13.1,13.1v34.9C-218.2,308.4-224,314.3-231.2,314.3z"/>
		<path class="st7" d="M-375.9,294.6H-390c-2.9,0-5.3-2.4-5.3-5.3V274c0-2.9,2.4-5.3,5.3-5.3h14.1c2.9,0,5.3,2.4,5.3,5.3v15.3
			C-370.6,292.2-373,294.6-375.9,294.6z"/>
		<path class="st7" d="M-159,294.6h14.1c2.9,0,5.3-2.4,5.3-5.3V274c0-2.9-2.4-5.3-5.3-5.3H-159c-2.9,0-5.3,2.4-5.3,5.3v15.3
			C-164.3,292.2-161.9,294.6-159,294.6z"/>
		<circle class="st4" cx="-152" cy="255.2" r="3.9"/>
	</g>
</g>
</svg>
