<?xml version="1.0" encoding="utf-8"?>
<!-- Generator: Adobe Illustrator 19.2.1, SVG Export Plug-In . SVG Version: 6.00 Build 0)  -->
<svg version="1.1" id="Layer_1" xmlns="http://www.w3.org/2000/svg" xmlns:xlink="http://www.w3.org/1999/xlink" x="0px" y="0px"
	 viewBox="0 0 16 16" style="enable-background:new 0 0 16 16;" xml:space="preserve">
<style type="text/css">
	.st0{fill:#12847E;}
	.st1{fill:#F48206;}
	.st2{fill:#F45C08;}
	.st3{fill:#E83803;}
	.st4{fill:none;stroke:#333333;stroke-width:0.2;stroke-miterlimit:10;}
	.st5{fill:#333333;}
	.st6{fill:#494949;}
	.st7{fill:#FCA915;}
	.st8{fill:#F7E7D0;}
</style>
<rect class="st0" width="16" height="16"/>
<path class="st1" d="M16,0c0,4.4-3.6,8-8,8S0,4.4,0,0"/>
<path class="st2" d="M14.8,0c0,3.7-3,6.8-6.8,6.8S1.2,3.8,1.2,0"/>
<path class="st3" d="M13.5,0c0,3-2.4,5.5-5.5,5.5S2.5,3,2.5,0"/>
<line class="st4" x1="8" y1="7.9" x2="8" y2="0"/>
<g>
	<g>
		<circle class="st5" cx="8" cy="8.3" r="1.8"/>
		<path class="st6" d="M6.7,7c0.7-0.7,1.8-0.7,2.5,0c0.7,0.7,0.7,1.8,0,2.5"/>
	</g>
	<rect x="7.6" y="6.2" class="st6" width="0.7" height="0.7"/>
</g>
<g>
	<polygon class="st7" points="8,2.8 8.4,2 8.4,2.9 9.3,2.8 8.6,3.4 9.2,4 8.3,3.7 8.2,4.6 7.9,3.8 7.1,4.3 7.6,3.5 6.7,3.2 7.6,3 
		7.3,2.2 	"/>
	<polygon class="st8" points="8.2,2.9 8.8,2.5 8.5,3.1 9.2,3.4 8.4,3.5 8.7,4.2 8.1,3.7 7.7,4.4 7.8,3.6 7,3.8 7.7,3.3 7.1,2.8 
		7.8,3 7.9,2.2 	"/>
</g>
</svg>
