<?xml version="1.0" encoding="utf-8"?>
<!-- Generator: Adobe Illustrator 19.1.0, SVG Export Plug-In . SVG Version: 6.00 Build 0)  -->
<svg version="1.1" id="Layer_1" xmlns="http://www.w3.org/2000/svg" xmlns:xlink="http://www.w3.org/1999/xlink" x="0px" y="0px"
	 viewBox="0 0 275.3 129.3" style="enable-background:new 0 0 275.3 129.3;" xml:space="preserve">
<style type="text/css">
	.st0{fill:#F48206;}
	.st1{fill:#F45C08;}
	.st2{fill:#E83803;}
	.st3{fill:#F7E7D0;}
	.st4{fill:none;stroke:#333333;stroke-width:2;stroke-miterlimit:10;}
	.st5{fill:#333333;}
	.st6{fill:#494949;}
	.st7{fill:#FCA915;}
</style>
<path class="st0" d="M243.9,0c0,56.7-46,102.7-102.7,102.7S38.5,56.8,38.5,0"/>
<path class="st1" d="M228.4,0c0,48.1-39,87.1-87.1,87.1S54.1,48.2,54.1,0"/>
<path class="st2" d="M211.5,0c0,38.8-31.4,70.2-70.2,70.2S71,38.8,71,0"/>
<g>
	<path class="st3" d="M19.3,42.3v14h-2.4l-0.7-3c-1.5,2.3-3.5,3.4-6.3,3.4c-6,0-9.7-5-9.7-13.2c0-5.3,1.5-9.5,4.1-11.8
		c1.6-1.4,3.6-2.1,6.1-2.1c5.5,0,8.2,2.7,9,9l-5.2,0.9c-0.2-1.9-0.5-2.7-0.9-3.5c-0.6-1.1-1.6-1.7-2.8-1.7c-2.9,0-4.3,2.8-4.3,9
		c0,6.1,1.3,8.8,4.5,8.8c1.5,0,2.5-0.7,3.1-2.1c0.3-0.7,0.4-1.4,0.4-3.1h-3.9v-4.5H19.3z"/>
	<path class="st3" d="M29.5,30.1v21.4H38v4.9H23.8V30.1H29.5z"/>
	<path class="st3" d="M46.3,30.1v26.3h-5.8V30.1H46.3z"/>
	<path class="st3" d="M65.2,30.1V35h-5.4v21.4h-5.8V35h-5.2v-4.9H65.2z"/>
	<path class="st3" d="M82.7,30.1V35h-5.4v21.4h-5.8V35h-5.2v-4.9H82.7z"/>
	<path class="st3" d="M101.2,30.1v4.5H91v6.1h8v4.5h-8v6.5h10.2v4.7h-16V30.1H101.2z"/>
	<path class="st3" d="M112.2,30.1c3.5,0,4.7,0.3,6.2,1.4c1.8,1.4,2.8,3.7,2.8,6.6c0,3.4-1.1,5.3-3.7,6.9l4.9,11.5h-6.3L112.6,46
		h-2.9v10.4H104V30.1H112.2z M109.8,41.7h2.5c2.2,0,3.4-1.3,3.4-3.8c0-1.3-0.4-2.3-1.1-3c-0.5-0.4-1.2-0.6-2.5-0.6h-2.3V41.7z"/>
	<path class="st3" d="M171.3,30.1c3.4,0,4.7,0.2,6,1.1c1.5,1,2.5,3.3,2.5,5.8c0,3-1.1,4.6-3.8,5.6c2.9,1,4.5,3.3,4.5,6.5
		c0,2.5-1.1,4.8-2.9,6c-1.5,1-2.8,1.2-6.3,1.2h-9V30.1H171.3z M169.8,40.7c1.6,0,2.6-0.2,3.2-0.7s1.1-1.5,1.1-2.6
		c0-2.1-1.1-3.1-3.8-3.1h-2.3v6.3H169.8z M170.7,51.8c2.7,0,3.9-1.1,3.9-3.5c0-2.4-1.2-3.4-3.9-3.4h-2.8v6.9H170.7z"/>
	<path class="st3" d="M199.4,32.2c2.1,2.3,3.2,5.9,3.2,11c0,8.9-3.3,13.5-9.5,13.5c-6.3,0-9.5-4.6-9.5-13.4c0-9.1,3.2-13.6,9.7-13.6
		C195.6,29.7,197.9,30.6,199.4,32.2z M189.5,43.2c0,6.7,0.9,8.9,3.5,8.9s3.5-2.2,3.5-8.9c0-6.5-0.9-8.8-3.4-8.8
		C190.4,34.4,189.5,36.6,189.5,43.2z"/>
	<path class="st3" d="M215,30.1l3.7,16.2l4.2-16.2h8.2v26.3h-5.4v-22l-5.4,22h-4.2l-4.9-22v22h-4.7V30.1H215z"/>
	<path class="st3" d="M245.1,30.1c3.4,0,4.7,0.2,6,1.1c1.5,1,2.5,3.3,2.5,5.8c0,3-1.1,4.6-3.8,5.6c2.9,1,4.5,3.3,4.5,6.5
		c0,2.5-1.1,4.8-2.9,6c-1.5,1-2.8,1.2-6.3,1.2h-9V30.1H245.1z M243.5,40.7c1.6,0,2.6-0.2,3.2-0.7s1.1-1.5,1.1-2.6
		c0-2.1-1.1-3.1-3.8-3.1h-2.3v6.3H243.5z M244.5,51.8c2.7,0,3.9-1.1,3.9-3.5c0-2.4-1.2-3.4-3.9-3.4h-2.8v6.9H244.5z"/>
	<path class="st3" d="M269.9,37.6c-0.7-2.3-1.9-3.3-3.7-3.3c-1.6,0-2.8,1-2.8,2.4c0,1.5,0.7,2.1,4.5,3.5c2.6,1,3.5,1.5,4.7,2.4
		c1.7,1.4,2.6,3.3,2.6,5.7c0,5-3.7,8.4-9.3,8.4c-4.8,0-7.8-2.3-9.1-7.2l5-1.4c0.7,2.8,2,3.9,4.2,3.9c2,0,3.4-1.1,3.4-2.8
		c0-1.5-0.9-2.3-3.6-3.3c-3.3-1.2-4.2-1.6-5.5-2.7c-1.6-1.4-2.4-3.3-2.4-5.5c0-4.8,3.4-8,8.4-8c2.3,0,4.3,0.6,5.8,1.9
		c1.3,1,1.9,2.1,2.6,4.3L269.9,37.6z"/>
</g>
<g>
	<line class="st4" x1="141.5" y1="102" x2="141.5" y2="0"/>
	<g>
		<g>
			<circle class="st5" cx="141.2" cy="106.4" r="22.9"/>
			<path class="st6" d="M125,90.2c8.9-9,23.4-9,32.4-0.1s9,23.4,0.1,32.4"/>
		</g>
		<rect x="135.7" y="79.8" class="st6" width="9.5" height="9.5"/>
	</g>
	<g>
		<polygon class="st7" points="139.8,35.7 146.1,25.8 145.7,37.3 157,36.3 147.7,43.2 155.7,51.3 144.6,47.7 143,59.6 138.9,48.3 
			128.7,54.9 134.9,44.5 123.4,40.8 135.5,38.9 131.1,27.8 		"/>
		<polygon class="st3" points="142.5,37.2 150.4,31.8 146.4,40.3 155.3,43.2 146,45.4 149.4,54.1 142.2,47.8 137.2,56.3 137.8,46.4 
			127.9,48.2 136,42.3 128.4,35.8 138.2,38.3 138.5,28.5 		"/>
	</g>
</g>
</svg>
