<?xml version="1.0" encoding="utf-8"?>
<!-- Generator: Adobe Illustrator 19.1.0, SVG Export Plug-In . SVG Version: 6.00 Build 0)  -->
<svg version="1.1" id="Layer_1" xmlns="http://www.w3.org/2000/svg" xmlns:xlink="http://www.w3.org/1999/xlink" x="0px" y="0px"
	 viewBox="0 0 371.3 200.6" style="enable-background:new 0 0 371.3 200.6;" xml:space="preserve">
<style type="text/css">
	.st0{fill:none;}
	.st1{fill:#F9A540;}
	.st2{fill:#12847E;}
	.st3{fill:#F2F1F0;}
	.st4{fill:url(#SVGID_1_);}
	.st5{fill:url(#SVGID_2_);}
	.st6{fill:#FFFFFF;}
	.st7{fill:#333333;}
	.st8{fill:#494949;}
	.st9{fill:none;stroke:#333333;stroke-width:4;stroke-miterlimit:10;}
	.st10{fill:url(#SVGID_3_);}
	.st11{fill:url(#SVGID_4_);}
	.st12{fill:url(#SVGID_5_);}
	.st13{fill:url(#SVGID_6_);}
	.st14{fill:#F272D6;}
	.st15{fill:#845730;}
	.st16{fill:#8E6236;}
	.st17{fill:none;stroke:#000000;stroke-miterlimit:10;}
	.st18{fill:#E2E2E2;stroke:#000000;stroke-miterlimit:10;}
	.st19{fill:#03A5DD;}
	.st20{fill:#C98F55;}
	.st21{fill:#F4B006;}
	.st22{fill:#F20883;}
	.st23{fill:#D39B5E;}
	.st24{fill:#F9C32D;}
	.st25{fill:#EAB883;}
	.st26{fill:#EFC48F;}
	.st27{fill:#CE4205;}
	.st28{fill:#DD562C;}
	.st29{fill:url(#SVGID_7_);}
	.st30{fill:url(#SVGID_8_);}
	.st31{font-family:'MuseoSans-700';}
	.st32{font-size:159.0759px;}
	.st33{font-family:'MuseoSans-500';}
	.st34{font-size:17.6751px;}
	.st35{fill:none;stroke:#FC061E;stroke-width:2;stroke-miterlimit:10;stroke-dasharray:12;}
	.st36{fill:none;stroke:#333333;stroke-miterlimit:10;}
	.st37{fill:#F96703;}
	.st38{fill:url(#SVGID_10_);}
	.st39{fill:url(#SVGID_11_);}
	.st40{fill:#666666;}
	.st41{fill:#29ABE2;}
	.st42{fill:url(#SVGID_12_);}
	.st43{fill:#333333;stroke:#C1272D;stroke-miterlimit:10;}
	.st44{fill:none;stroke:#39B54A;stroke-miterlimit:10;}
	.st45{fill:none;stroke:url(#);stroke-miterlimit:10;}
	.st46{fill:none;stroke:#FFFF00;stroke-miterlimit:10;}
	.st47{fill:none;stroke:#F15A24;stroke-miterlimit:10;}
	.st48{fill:none;stroke:#0071BC;stroke-miterlimit:10;}
	.st49{fill:#FFDA00;}
	.st50{fill:url(#SVGID_13_);}
</style>
<pattern  x="-68.1" y="-549.7" width="205.3" height="205.3" patternUnits="userSpaceOnUse" id="New_Pattern_Swatch_1" viewBox="0 -205.3 205.3 205.3" style="overflow:visible;">
	<g>
		<polygon class="st0" points="0,0 205.3,0 205.3,-205.3 0,-205.3 		"/>
		<polygon class="st1" points="205.3,0 0,0 0,-205.3 205.3,-205.3 		"/>
	</g>
</pattern>
<pattern  x="-68.1" y="-549.7" width="205.3" height="205.3" patternUnits="userSpaceOnUse" id="New_Pattern_Swatch_3" viewBox="0 -205.3 205.3 205.3" style="overflow:visible;">
	<g>
		<polygon class="st0" points="0,-205.3 205.3,-205.3 205.3,0 0,0 		"/>
		<polygon class="st2" points="205.3,0 0,0 0,-205.3 205.3,-205.3 		"/>
	</g>
</pattern>
<path class="st3" d="M343.4,199.7H27.8C12.4,199.7,0,187.3,0,171.9V28C0,12.7,12.4,0.3,27.8,0.3h315.7c15.3,0,27.8,12.4,27.8,27.8
	v143.9C371.2,187.3,358.7,199.7,343.4,199.7z"/>
<pattern  id="SVGID_1_" xlink:href="#New_Pattern_Swatch_3" patternTransform="matrix(0.6325 0 0 0.8838 -2850.957 -1571.0811)">
</pattern>
<path class="st4" d="M371.3,38.9H0V0h343.2c15.5,0,28.1,12.6,28.1,28.1V38.9z"/>
<rect x="17.5" y="68.2" class="st0" width="91.6" height="159.4"/>
<pattern  id="SVGID_2_" xlink:href="#New_Pattern_Swatch_1" patternTransform="matrix(0.8838 0 0 0.8838 -816.0289 -1673.5966)">
</pattern>
<text transform="matrix(1 0 0 1 17.6482 181.1428)" class="st5 st31 st32"><pattern  id="SVGID_3_" xlink:href="#New_Pattern_Swatch_1" patternTransform="matrix(0.8838 0 0 0.8838 -816.0289 -1673.5966)">
</pattern>
3</text>
<g>
	<rect x="31" y="13.3" class="st0" width="171.2" height="15.9"/>
	<text transform="matrix(1 0 0 1 30.9897 25.7375)" class="st6 st33 st34">TRACK YOUR BOMB</text>
</g>
<g>
	
		<image style="overflow:visible;" width="2054" height="1396" xlink:href="558B340E4893382A.png"  transform="matrix(7.799692e-02 0 0 7.799692e-02 118.6597 60.7918)">
	</image>
	<path class="st7" d="M237.9,56.7c0-5.7-4.6-10.4-10.4-10.4h-57.2c-5.7,0-10.4,4.6-10.4,10.4V181c0,5.7,4.6,10.4,10.4,10.4h57.2
		c5.7,0,10.4-4.6,10.4-10.4V56.7z M232.9,168.3h-68v-107h68V168.3z"/>
	<circle class="st8" cx="199.5" cy="180.4" r="7.4"/>
	<path class="st8" d="M207.4,54.1h-15.8c-0.2,0-0.3-0.1-0.3-0.3l0,0c0-0.2,0.1-0.3,0.3-0.3h15.8c0.2,0,0.3,0.1,0.3,0.3l0,0
		C207.7,53.9,207.5,54.1,207.4,54.1z"/>
</g>
<rect x="115.8" y="54.1" class="st3" width="44.2" height="127.4"/>
<rect x="237.7" y="54.1" class="st3" width="44.2" height="127.4"/>
<g>
	<path class="st19" d="M343.7,200.4h-85.3V184c0-15.4,12.5-27.8,27.8-27.8h29.6c15.4,0,27.8,12.5,27.8,27.8V200.4z"/>
	<path class="st20" d="M308.4,156.2l-5.9,9.9c-0.7,1.1-2.3,1.1-3,0l-5.7-9.9v-8.7h14.7V156.2z"/>
	<ellipse class="st21" cx="301.3" cy="85.3" rx="12.4" ry="10.5"/>
	<ellipse class="st22" cx="301.3" cy="93.2" rx="16.9" ry="10.5"/>
	
		<ellipse transform="matrix(0.9702 0.2424 -0.2424 0.9702 38.5677 -76.2331)" class="st23" cx="329.1" cy="118.6" rx="3.4" ry="6.1"/>
	
		<ellipse transform="matrix(-0.9702 0.2424 -0.2424 -0.9702 566.175 167.6283)" class="st23" cx="272.8" cy="118.6" rx="3.4" ry="6.1"/>
	<path class="st23" d="M328.7,112.5c0,15.3-12.4,39.7-27.8,39.7s-27.8-24.3-27.8-39.7s12.4-27.8,27.8-27.8S328.7,97.2,328.7,112.5z"
		/>
	<path class="st24" d="M273.2,104c0-10.6,12.4-19.3,27.8-19.3s27.8,8.6,27.8,19.3"/>
</g>
<line class="st35" x1="278.9" y1="74.3" x2="142.9" y2="74.3"/>
<line class="st36" x1="84.4" y1="128.3" x2="84.4" y2="92.3"/>
<g>
	<g>
		<circle class="st7" cx="84.7" cy="143" r="13"/>
		<path class="st8" d="M75.4,133.8c5.1-5.1,13.3-5.1,18.4-0.1c5.1,5.1,5.1,13.3,0.1,18.4"/>
	</g>
	<rect x="81.7" y="127.8" class="st8" width="5.4" height="5.4"/>
</g>
<g>
	<polygon class="st37" points="85.5,109.3 89.3,106 87.7,110.6 92.5,111.6 87.9,113.3 90.2,117.6 86.1,114.8 84,119.5 83.6,114.3 
		78.6,115.9 82.5,112.3 78.2,109.4 83.4,110.1 82.9,105 	"/>
	
		<pattern  id="SVGID_4_" xlink:href="#New_Pattern_Swatch_1" patternTransform="matrix(0.3202 -8.231556e-02 2.509493e-02 9.760258e-02 -3802.2041 -8012.3682)">
	</pattern>
	<polygon class="st11" points="84,108.5 86.8,102.7 87.3,109 93.4,107.7 88.8,112 93.6,115.9 87.4,114.7 87.3,121.3 84.3,115.4 
		79.2,119.7 81.9,113.6 75.4,112.3 81.9,110.5 78.8,104.8 	"/>
	
		<pattern  id="SVGID_5_" xlink:href="#New_Pattern_Swatch_1" patternTransform="matrix(0.2564 3.888776e-02 -1.185542e-02 7.815980e-02 -4750.8633 -7393.625)">
	</pattern>
	<polygon class="st12" points="85.5,109.3 89.3,106 87.7,110.6 92.5,111.6 87.9,113.3 90.2,117.6 86.1,114.8 84,119.5 83.6,114.3 
		78.6,115.9 82.5,112.3 78.2,109.4 83.4,110.1 82.9,105 	"/>
</g>
<g>
	<ellipse class="st40" cx="84.7" cy="81.6" rx="13" ry="10.9"/>
	<path class="st7" d="M68.5,71.3l-34.3,1.1c-1.3,0-2.3,1.1-2.3,2.3v0c0,1.3,1,2.3,2.3,2.3l34.3,1.1"/>
	<rect x="40.3" y="65.6" class="st7" width="1.5" height="7.5"/>
	<g>
		<ellipse class="st41" cx="50.4" cy="66.2" rx="9.6" ry="1"/>
		<ellipse class="st41" cx="31.7" cy="66.2" rx="9.6" ry="1"/>
	</g>
	<circle class="st7" cx="41.1" cy="64.7" r="1.5"/>
	<rect x="127.6" y="65.6" class="st7" width="1.5" height="7.5"/>
	<path class="st7" d="M101,71.3l34.3,1.1c1.3,0,2.3,1.1,2.3,2.3v0c0,1.3-1,2.3-2.3,2.3L101,78.1"/>
	<g>
		<ellipse class="st41" cx="119.1" cy="66.2" rx="9.6" ry="1"/>
		<ellipse class="st41" cx="137.7" cy="66.2" rx="9.6" ry="1"/>
	</g>
	<path class="st7" d="M91.8,87H77.6c-6.4,0-11.5-5.2-11.5-11.5v0c0-6.4,5.2-11.5,11.5-11.5h14.2c6.4,0,11.5,5.2,11.5,11.5v0
		C103.4,81.9,98.2,87,91.8,87z"/>
	<path class="st40" d="M41.1,79.6L41.1,79.6c-2.6,0-4.7-2.1-4.7-4.7v-0.4c0-2.6,2.1-4.7,4.7-4.7h0c2.6,0,4.7,2.1,4.7,4.7v0.4
		C45.7,77.5,43.6,79.6,41.1,79.6z"/>
	<path class="st40" d="M128.4,79.6L128.4,79.6c2.6,0,4.7-2.1,4.7-4.7v-0.4c0-2.6-2.1-4.7-4.7-4.7h0c-2.6,0-4.7,2.1-4.7,4.7v0.4
		C123.7,77.5,125.8,79.6,128.4,79.6z"/>
	<circle class="st7" cx="128.4" cy="64.7" r="1.5"/>
</g>
</svg>
