<?xml version="1.0" encoding="utf-8"?>
<!-- Generator: Adobe Illustrator 19.1.0, SVG Export Plug-In . SVG Version: 6.00 Build 0)  -->
<svg version="1.1" id="Layer_1" xmlns="http://www.w3.org/2000/svg" xmlns:xlink="http://www.w3.org/1999/xlink" x="0px" y="0px"
	 viewBox="0 0 371.8 199.4" style="enable-background:new 0 0 371.8 199.4;" xml:space="preserve">
<style type="text/css">
	.st0{fill:none;}
	.st1{fill:#F9A540;}
	.st2{fill:#12847E;}
	.st3{fill:#F2F1F0;}
	.st4{fill:url(#SVGID_1_);}
	.st5{fill:url(#SVGID_2_);}
	.st6{fill:#FFFFFF;}
	.st7{fill:#333333;}
	.st8{fill:#494949;}
	.st9{fill:none;stroke:#333333;stroke-width:4;stroke-miterlimit:10;}
	.st10{fill:url(#SVGID_3_);}
	.st11{fill:url(#SVGID_4_);}
	.st12{fill:url(#SVGID_5_);}
	.st13{fill:url(#SVGID_6_);}
	.st14{font-family:'MuseoSans-700';}
	.st15{font-size:159.0759px;}
	.st16{font-family:'MuseoSans-500';}
	.st17{font-size:17.6751px;}
	.st18{fill:#F272D6;}
	.st19{fill:#845730;}
	.st20{fill:#8E6236;}
	.st21{fill:none;stroke:#000000;stroke-miterlimit:10;}
	.st22{fill:#E2E2E2;stroke:#000000;stroke-miterlimit:10;}
	.st23{fill:#03A5DD;}
	.st24{fill:#C98F55;}
	.st25{fill:#F4B006;}
	.st26{fill:#F20883;}
	.st27{fill:#D39B5E;}
	.st28{fill:#F9C32D;}
	.st29{fill:#EAB883;}
	.st30{fill:#EFC48F;}
	.st31{fill:#CE4205;}
	.st32{fill:#DD562C;}
	.st33{fill:url(#SVGID_8_);}
	.st34{fill:url(#SVGID_9_);}
	.st35{fill:none;stroke:#FC061E;stroke-width:2;stroke-miterlimit:10;stroke-dasharray:12;}
	.st36{fill:none;stroke:#333333;stroke-miterlimit:10;}
	.st37{fill:#F96703;}
	.st38{fill:url(#SVGID_10_);}
	.st39{fill:url(#SVGID_11_);}
	.st40{fill:#666666;}
	.st41{fill:#29ABE2;}
	.st42{fill:url(#SVGID_12_);}
	.st43{fill:#333333;stroke:#C1272D;stroke-miterlimit:10;}
	.st44{fill:none;stroke:#39B54A;stroke-miterlimit:10;}
	.st45{fill:none;stroke:url(#);stroke-miterlimit:10;}
	.st46{fill:none;stroke:#FFFF00;stroke-miterlimit:10;}
	.st47{fill:none;stroke:#F15A24;stroke-miterlimit:10;}
	.st48{fill:none;stroke:#0071BC;stroke-miterlimit:10;}
	.st49{fill:#FFDA00;}
	.st50{fill:url(#SVGID_13_);}
</style>
<pattern  x="-561.5" y="-269.5" width="205.3" height="205.3" patternUnits="userSpaceOnUse" id="New_Pattern_Swatch_1" viewBox="0 -205.3 205.3 205.3" style="overflow:visible;">
	<g>
		<polygon class="st0" points="0,0 205.3,0 205.3,-205.3 0,-205.3 		"/>
		<polygon class="st1" points="205.3,0 0,0 0,-205.3 205.3,-205.3 		"/>
	</g>
</pattern>
<pattern  x="-561.5" y="-269.5" width="205.3" height="205.3" patternUnits="userSpaceOnUse" id="New_Pattern_Swatch_3" viewBox="0 -205.3 205.3 205.3" style="overflow:visible;">
	<g>
		<polygon class="st0" points="0,-205.3 205.3,-205.3 205.3,0 0,0 		"/>
		<polygon class="st2" points="205.3,0 0,0 0,-205.3 205.3,-205.3 		"/>
	</g>
</pattern>
<path class="st3" d="M344.1,199.4H28.4c-15.3,0-27.8-12.4-27.8-27.8V27.8C0.6,12.4,13.1,0,28.4,0h315.7c15.3,0,27.8,12.4,27.8,27.8
	v143.9C371.8,187,359.4,199.4,344.1,199.4z"/>
<pattern  id="SVGID_1_" xlink:href="#New_Pattern_Swatch_3" patternTransform="matrix(0.7206 0 0 0.8838 -1797.6274 -1651.5042)">
</pattern>
<path class="st4" d="M0,38.9h371.8V0H27.9C12.5,0,0,12.5,0,27.9V38.9z"/>
<rect x="11.8" y="61.4" class="st0" width="104.7" height="172.7"/>
<pattern  id="SVGID_2_" xlink:href="#New_Pattern_Swatch_1" patternTransform="matrix(0.8838 0 0 0.8838 -729.4666 -1754.0197)">
</pattern>
<text transform="matrix(1 0 0 1 18.016 174.3707)" class="st5 st14 st15"><pattern  id="SVGID_3_" xlink:href="#New_Pattern_Swatch_1" patternTransform="matrix(0.8838 0 0 0.8838 -729.4666 -1754.0197)">
</pattern>
2</text>
<rect x="27.1" y="13.5" class="st0" width="199.6" height="16.2"/>
<text transform="matrix(1 0 0 1 27.1004 25.9688)" class="st6 st16 st17">CHOOSE YOUR VICTIM </text>
<g>
	<g>
		<path class="st18" d="M230.4,199.4h-85.3v-34.8c0-15.4,12.5-27.8,27.8-27.8h29.6c15.4,0,27.8,12.5,27.8,27.8V199.4z"/>
		<path class="st19" d="M195.1,136.8l-5.9,9.9c-0.7,1.1-2.3,1.1-3,0l-5.7-9.9v-8.7h14.7V136.8z"/>
		<g>
			<path class="st20" d="M215.5,93.3c0,15.3-12.4,39.7-27.8,39.7S160,108.6,160,93.3s12.4-27.8,27.8-27.8S215.5,77.9,215.5,93.3z"/>
			<ellipse transform="matrix(0.9702 0.2424 -0.2424 0.9702 29.7588 -49.477)" class="st20" cx="216" cy="96.2" rx="3.4" ry="6.1"/>
			
				<ellipse transform="matrix(-0.9702 0.2424 -0.2424 -0.9702 337.8075 150.8714)" class="st20" cx="159.6" cy="96.2" rx="3.4" ry="6.1"/>
		</g>
		<path d="M160,91.2c0,0-7.5-14.7,15.7-27.2c0,0,6-8.3,20.3-6.1c15.3,2.4,25,22.4,18.8,36.2c-1.1,2.5-4.6,11.7-9.7-6.3
			C200,69.8,192,70,187.6,75.3c-4.5,5.4-1,6.3-1.4,7.7c-0.4,1.4-3.4,1.4-4.8,4.1c-1.4,2.7,1.1,4.1-0.1,5.2c-1.2,1.1-10,5.2-12.4,3.2
			c-2.4-2-2.8,3.8-3.2,4.9C164.8,103.2,161.2,96.1,160,91.2z"/>
		<path class="st21" d="M183.7,98.1c0,0,4.8-2.2,9,0"/>
		<path class="st22" d="M181.5,103.1h-8.1c-1.8,0-3.3-1.5-3.1-3.4l0.4-4.9c0.1-1.5,1.4-2.7,2.9-2.7h8c1.5,0,2.8,1.2,2.9,2.7l0.4,4.9
			C184.8,101.5,183.3,103.1,181.5,103.1z"/>
		<path class="st22" d="M203,103.1h-8.1c-1.8,0-3.3-1.5-3.1-3.4l0.4-4.9c0.1-1.5,1.4-2.7,2.9-2.7h8c1.5,0,2.8,1.2,2.9,2.7l0.4,4.9
			C206.2,101.5,204.8,103.1,203,103.1z"/>
	</g>
	<g>
		<path class="st23" d="M291.3,199.4H206V183c0-15.4,12.5-27.8,27.8-27.8h29.6c15.4,0,27.8,12.5,27.8,27.8V199.4z"/>
		<path class="st24" d="M256,155.2l-5.9,9.9c-0.7,1.1-2.3,1.1-3,0l-5.7-9.9v-8.7H256V155.2z"/>
		<ellipse class="st25" cx="248.9" cy="84.3" rx="12.4" ry="10.5"/>
		<ellipse class="st26" cx="248.9" cy="92.2" rx="16.9" ry="10.5"/>
		
			<ellipse transform="matrix(0.9702 0.2424 -0.2424 0.9702 36.7635 -63.5672)" class="st27" cx="276.7" cy="117.6" rx="3.4" ry="6.1"/>
		
			<ellipse transform="matrix(-0.9702 0.2424 -0.2424 -0.9702 462.7312 178.3539)" class="st27" cx="220.4" cy="117.6" rx="3.4" ry="6.1"/>
		<path class="st27" d="M276.3,111.5c0,15.3-12.4,39.7-27.8,39.7s-27.8-24.3-27.8-39.7s12.4-27.8,27.8-27.8S276.3,96.2,276.3,111.5z
			"/>
		<path class="st28" d="M220.8,103c0-10.6,12.4-19.3,27.8-19.3s27.8,8.6,27.8,19.3"/>
	</g>
	<g>
		<g>
			<path class="st7" d="M171.1,199.4H85.8V183c0-15.4,12.5-27.8,27.8-27.8h29.6c15.4,0,27.8,12.5,27.8,27.8V199.4z"/>
			<rect x="114.4" y="155.2" class="st3" width="28.4" height="44.3"/>
		</g>
		<path class="st29" d="M135.8,155.2l-5.9,9.9c-0.7,1.1-2.3,1.1-3,0l-5.7-9.9v-8.7h14.7V155.2z"/>
		
			<ellipse transform="matrix(0.9702 0.2424 -0.2424 0.9702 33.1672 -34.3337)" class="st30" cx="156.1" cy="117.6" rx="3.4" ry="6.1"/>
		
			<ellipse transform="matrix(-0.9702 0.2424 -0.2424 -0.9702 226.6589 207.3951)" class="st30" cx="100.6" cy="117.6" rx="3.4" ry="6.1"/>
		<path class="st30" d="M156.1,111.5c0,15.3-12.4,39.7-27.8,39.7s-27.8-24.3-27.8-39.7s12.4-27.8,27.8-27.8S156.1,96.2,156.1,111.5z
			"/>
		<path class="st31" d="M100.5,111.5c0-15.3,12.4-27.8,27.8-27.8s27.8,12.4,27.8,27.8"/>
		<path class="st32" d="M100.5,111.5c0-15.3,12.4-4.8,27.8-4.8s27.8-10.6,27.8,4.8"/>
	</g>
</g>
</svg>
