<?xml version="1.0" encoding="utf-8"?>
<!-- Generator: Adobe Illustrator 19.1.0, SVG Export Plug-In . SVG Version: 6.00 Build 0)  -->
<svg version="1.1" id="Layer_1" xmlns="http://www.w3.org/2000/svg" xmlns:xlink="http://www.w3.org/1999/xlink" x="0px" y="0px"
	 viewBox="0 0 371.2 199.4" style="enable-background:new 0 0 371.2 199.4;" xml:space="preserve">
<style type="text/css">
	.st0{fill:none;}
	.st1{fill:#F9A540;}
	.st2{fill:#12847E;}
	.st3{fill:#F2F1F0;}
	.st4{fill:url(#SVGID_1_);}
	.st5{fill:url(#SVGID_2_);}
	.st6{font-family:'MuseoSans-700';}
	.st7{font-size:159.0759px;}
	.st8{fill:#FFFFFF;}
	.st9{font-family:'MuseoSans-500';}
	.st10{font-size:17.6751px;}
	.st11{fill:#333333;}
	.st12{fill:#494949;}
	.st13{fill:none;stroke:#333333;stroke-width:4;stroke-miterlimit:10;}
	.st14{fill:url(#SVGID_4_);}
	.st15{fill:url(#SVGID_5_);}
	.st16{fill:url(#SVGID_6_);}
	.st17{fill:url(#SVGID_7_);}
	.st18{fill:#F272D6;}
	.st19{fill:#845730;}
	.st20{fill:#8E6236;}
	.st21{fill:none;stroke:#000000;stroke-miterlimit:10;}
	.st22{fill:#E2E2E2;stroke:#000000;stroke-miterlimit:10;}
	.st23{fill:#03A5DD;}
	.st24{fill:#C98F55;}
	.st25{fill:#F4B006;}
	.st26{fill:#F20883;}
	.st27{fill:#D39B5E;}
	.st28{fill:#F9C32D;}
	.st29{fill:#EAB883;}
	.st30{fill:#EFC48F;}
	.st31{fill:#CE4205;}
	.st32{fill:#DD562C;}
	.st33{fill:url(#SVGID_8_);}
	.st34{fill:url(#SVGID_9_);}
	.st35{fill:none;stroke:#FC061E;stroke-width:2;stroke-miterlimit:10;stroke-dasharray:12;}
	.st36{fill:none;stroke:#333333;stroke-miterlimit:10;}
	.st37{fill:#F96703;}
	.st38{fill:url(#SVGID_10_);}
	.st39{fill:url(#SVGID_11_);}
	.st40{fill:#666666;}
	.st41{fill:#29ABE2;}
	.st42{fill:url(#SVGID_12_);}
	.st43{fill:#333333;stroke:#C1272D;stroke-miterlimit:10;}
	.st44{fill:none;stroke:#39B54A;stroke-miterlimit:10;}
	.st45{fill:none;stroke:url(#);stroke-miterlimit:10;}
	.st46{fill:none;stroke:#FFFF00;stroke-miterlimit:10;}
	.st47{fill:none;stroke:#F15A24;stroke-miterlimit:10;}
	.st48{fill:none;stroke:#0071BC;stroke-miterlimit:10;}
	.st49{fill:#FFDA00;}
	.st50{fill:url(#SVGID_13_);}
</style>
<pattern  x="-67" y="-269.5" width="205.3" height="205.3" patternUnits="userSpaceOnUse" id="New_Pattern_Swatch_1" viewBox="0 -205.3 205.3 205.3" style="overflow:visible;">
	<g>
		<polygon class="st0" points="0,0 205.3,0 205.3,-205.3 0,-205.3 		"/>
		<polygon class="st1" points="205.3,0 0,0 0,-205.3 205.3,-205.3 		"/>
	</g>
</pattern>
<pattern  x="-67" y="-269.5" width="205.3" height="205.3" patternUnits="userSpaceOnUse" id="New_Pattern_Swatch_3" viewBox="0 -205.3 205.3 205.3" style="overflow:visible;">
	<g>
		<polygon class="st0" points="0,-205.3 205.3,-205.3 205.3,0 0,0 		"/>
		<polygon class="st2" points="205.3,0 0,0 0,-205.3 205.3,-205.3 		"/>
	</g>
</pattern>
<path class="st3" d="M343.4,199.4H27.8C12.4,199.4,0,187,0,171.7V27.8C0,12.4,12.4,0,27.8,0h315.7c15.3,0,27.8,12.4,27.8,27.8v143.9
	C371.2,187,358.7,199.4,343.4,199.4z"/>
<pattern  id="SVGID_1_" xlink:href="#New_Pattern_Swatch_3" patternTransform="matrix(0.6323 0 0 0.8838 -2851.856 -1651.5042)">
</pattern>
<path class="st4" d="M371.2,38.9H0V0h343.6c15.2,0,27.6,12.3,27.6,27.6V38.9z"/>
<rect x="6.5" y="61.2" class="st0" width="108.9" height="146.3"/>
<pattern  id="SVGID_2_" xlink:href="#New_Pattern_Swatch_1" patternTransform="matrix(0.8838 0 0 0.8838 -816.3904 -1754.0197)">
</pattern>
<text transform="matrix(1 0 0 1 20.2048 174.0977)" class="st5 st6 st7"><pattern  id="SVGID_3_" xlink:href="#New_Pattern_Swatch_1" patternTransform="matrix(0.8838 0 0 0.8838 -816.3904 -1754.0197)">
</pattern>
1</text>
<rect x="31.1" y="12.2" class="st0" width="190.4" height="15.4"/>
<text transform="matrix(1 0 0 1 31.1298 24.6427)" class="st8 st9 st10">CHOOSE YOUR BOMB</text>
<g>
	<g>
		<circle class="st11" cx="186.7" cy="150.8" r="39.6"/>
		<path class="st12" d="M158.5,122.9c15.4-15.5,40.5-15.6,56-0.3s15.6,40.5,0.3,56"/>
	</g>
	<path class="st13" d="M186.3,106c-1.6-5-0.2-11,3.5-14.7c3.6-3.6,9-5.2,12.5-9c2-2.2,3.3-5,3.7-7.9c0.1-1-0.5-2.4-1.4-2"/>
	<rect x="178.4" y="104.8" class="st12" width="16.5" height="16.5"/>
	
		<pattern  id="SVGID_4_" xlink:href="#New_Pattern_Swatch_1" patternTransform="matrix(0.6364 -8.553877e-02 2.607757e-02 0.194 -1210.8435 -7408.2402)">
	</pattern>
	<polygon class="st14" points="208.1,60.4 214.8,49.9 214.3,62.1 226.4,61 216.5,68.3 225,77 213.2,73.2 211.6,85.8 207.2,73.7 
		196.3,80.8 203,69.7 190.7,65.8 203.6,63.8 198.9,52 	"/>
	
		<pattern  id="SVGID_5_" xlink:href="#New_Pattern_Swatch_1" patternTransform="matrix(0.4856 0.1337 -4.074606e-02 0.148 -3204.4888 -6217.5503)">
	</pattern>
	<polygon class="st15" points="210.9,62.3 218.9,56.8 214.8,65.4 223.9,68.3 214.5,70.6 217.9,79.4 210.6,73.1 205.6,81.7 
		206.1,71.6 196.1,73.4 204.3,67.4 196.6,60.8 206.6,63.3 206.8,53.4 	"/>
</g>
</svg>
