<?xml version="1.0" encoding="utf-8"?>
<!-- Generator: Adobe Illustrator 19.1.0, SVG Export Plug-In . SVG Version: 6.00 Build 0)  -->
<svg version="1.1" id="Layer_1" xmlns="http://www.w3.org/2000/svg" xmlns:xlink="http://www.w3.org/1999/xlink" x="0px" y="0px"
	 viewBox="0 0 371.2 199.7" style="enable-background:new 0 0 371.2 199.7;" xml:space="preserve">
<style type="text/css">
	.st0{fill:none;}
	.st1{fill:#F9A540;}
	.st2{fill:#12847E;}
	.st3{fill:#C32237;}
	.st4{fill:#F2F1F0;}
	.st5{fill:url(#SVGID_1_);}
	.st6{fill:url(#SVGID_2_);}
	.st7{fill:#FFFFFF;}
	.st8{fill:#333333;}
	.st9{fill:#494949;}
	.st10{fill:none;stroke:#333333;stroke-width:4;stroke-miterlimit:10;}
	.st11{fill:url(#SVGID_3_);}
	.st12{fill:url(#SVGID_4_);}
	.st13{fill:url(#SVGID_5_);}
	.st14{fill:url(#SVGID_6_);}
	.st15{fill:#F272D6;}
	.st16{fill:#845730;}
	.st17{fill:#8E6236;}
	.st18{fill:none;stroke:#000000;stroke-miterlimit:10;}
	.st19{fill:#E2E2E2;stroke:#000000;stroke-miterlimit:10;}
	.st20{fill:#03A5DD;}
	.st21{fill:#C98F55;}
	.st22{fill:#F4B006;}
	.st23{fill:#F20883;}
	.st24{fill:#D39B5E;}
	.st25{fill:#F9C32D;}
	.st26{fill:#EAB883;}
	.st27{fill:#EFC48F;}
	.st28{fill:#CE4205;}
	.st29{fill:#DD562C;}
	.st30{fill:url(#SVGID_7_);}
	.st31{fill:url(#SVGID_8_);}
	.st32{fill:none;stroke:#FC061E;stroke-width:2;stroke-miterlimit:10;stroke-dasharray:12;}
	.st33{fill:none;stroke:#333333;stroke-miterlimit:10;}
	.st34{fill:#F96703;}
	.st35{fill:url(#SVGID_9_);}
	.st36{fill:url(#SVGID_10_);}
	.st37{fill:#666666;}
	.st38{fill:#29ABE2;}
	.st39{fill:url(#SVGID_11_);}
	.st40{font-family:'MuseoSans-700';}
	.st41{font-size:159.0759px;}
	.st42{fill:#333333;stroke:#C1272D;stroke-miterlimit:10;}
	.st43{fill:none;stroke:#39B54A;stroke-miterlimit:10;}
	.st44{fill:none;stroke:url(#SVGID_13_);stroke-miterlimit:10;}
	.st45{fill:none;stroke:url(#SVGID_14_);stroke-miterlimit:10;}
	.st46{fill:none;stroke:url(#SVGID_15_);stroke-miterlimit:10;}
	.st47{fill:none;stroke:url(#SVGID_16_);stroke-miterlimit:10;}
	.st48{fill:none;stroke:url(#SVGID_17_);stroke-miterlimit:10;}
	.st49{fill:none;stroke:url(#SVGID_18_);stroke-miterlimit:10;}
	.st50{fill:none;stroke:url(#SVGID_19_);stroke-miterlimit:10;}
	.st51{fill:none;stroke:url(#SVGID_20_);stroke-miterlimit:10;}
	.st52{fill:none;stroke:url(#SVGID_21_);stroke-miterlimit:10;}
	.st53{fill:none;stroke:url(#SVGID_22_);stroke-miterlimit:10;}
	.st54{fill:none;stroke:url(#SVGID_23_);stroke-miterlimit:10;}
	.st55{fill:none;stroke:url(#SVGID_24_);stroke-miterlimit:10;}
	.st56{fill:none;stroke:url(#SVGID_25_);stroke-miterlimit:10;}
	.st57{fill:none;stroke:#FFFF00;stroke-miterlimit:10;}
	.st58{fill:none;stroke:#F15A24;stroke-miterlimit:10;}
	.st59{fill:none;stroke:#0071BC;stroke-miterlimit:10;}
	.st60{fill:none;stroke:url(#SVGID_26_);stroke-miterlimit:10;}
	.st61{fill:none;stroke:url(#SVGID_27_);stroke-miterlimit:10;}
	.st62{fill:none;stroke:url(#SVGID_28_);stroke-miterlimit:10;}
	.st63{fill:none;stroke:url(#SVGID_29_);stroke-miterlimit:10;}
	.st64{fill:none;stroke:url(#SVGID_30_);stroke-miterlimit:10;}
	.st65{fill:none;stroke:url(#SVGID_31_);stroke-miterlimit:10;}
	.st66{fill:none;stroke:url(#SVGID_32_);stroke-miterlimit:10;}
	.st67{fill:none;stroke:url(#SVGID_33_);stroke-miterlimit:10;}
	.st68{fill:none;stroke:url(#SVGID_34_);stroke-miterlimit:10;}
	.st69{fill:none;stroke:url(#SVGID_35_);stroke-miterlimit:10;}
	.st70{fill:none;stroke:url(#SVGID_36_);stroke-miterlimit:10;}
	.st71{fill:none;stroke:url(#SVGID_37_);stroke-miterlimit:10;}
	.st72{fill:none;stroke:url(#SVGID_38_);stroke-miterlimit:10;}
	.st73{fill:#FFDA00;}
	.st74{fill:url(#SVGID_39_);}
	.st75{font-family:'MuseoSans-500';}
	.st76{font-size:17.6751px;}
</style>
<pattern  x="-564.6" y="-550.6" width="205.3" height="205.3" patternUnits="userSpaceOnUse" id="New_Pattern_Swatch_1" viewBox="0 -205.3 205.3 205.3" style="overflow:visible;">
	<g>
		<polygon class="st0" points="0,0 205.3,0 205.3,-205.3 0,-205.3 		"/>
		<polygon class="st1" points="205.3,0 0,0 0,-205.3 205.3,-205.3 		"/>
	</g>
</pattern>
<pattern  x="-564.6" y="-550.6" width="205.3" height="205.3" patternUnits="userSpaceOnUse" id="New_Pattern_Swatch_3" viewBox="0 -205.3 205.3 205.3" style="overflow:visible;">
	<g>
		<polygon class="st0" points="0,-205.3 205.3,-205.3 205.3,0 0,0 		"/>
		<polygon class="st2" points="205.3,0 0,0 0,-205.3 205.3,-205.3 		"/>
	</g>
</pattern>
<pattern  x="-564.6" y="-550.6" width="205.3" height="205.3" patternUnits="userSpaceOnUse" id="New_Pattern_Swatch_5" viewBox="0 -205.3 205.3 205.3" style="overflow:visible;">
	<g>
		<polygon class="st0" points="0,0 205.3,0 205.3,-205.3 0,-205.3 		"/>
		<polygon class="st3" points="205.3,0 0,0 0,-205.3 205.3,-205.3 		"/>
	</g>
</pattern>
<path class="st4" d="M343.4,199.4H27.8C12.4,199.4,0,187,0,171.7V27.8C0,12.4,12.4,0,27.8,0h315.7c15.3,0,27.8,12.4,27.8,27.8v143.9
	C371.2,187,358.7,199.4,343.4,199.4z"/>
<rect x="4.8" y="63.7" class="st0" width="130.8" height="164.8"/>
<pattern  id="SVGID_1_" xlink:href="#New_Pattern_Swatch_1" patternTransform="matrix(0.8838 0 0 0.8838 -720.0424 -1673.5966)">
</pattern>
<text transform="matrix(1 0 0 1 20.8266 176.6743)" class="st5 st40 st41"><pattern  id="SVGID_2_" xlink:href="#New_Pattern_Swatch_1" patternTransform="matrix(0.8838 0 0 0.8838 -720.0424 -1673.5966)">
</pattern>
4</text>
<g>
	<g>
		<path class="st20" d="M228.2,199.7h-85.3v-24.1c0-15.4,12.5-27.8,27.8-27.8h29.6c15.4,0,27.8,12.5,27.8,27.8V199.7z"/>
		<path class="st21" d="M192.9,149l-5.9,9.9c-0.7,1.1-2.3,1.1-3,0l-5.7-9.9v-8.7h14.7V149z"/>
		<ellipse class="st22" cx="185.6" cy="84.3" rx="12.4" ry="10.5"/>
		<ellipse class="st23" cx="185.7" cy="92.2" rx="16.9" ry="10.5"/>
		
			<ellipse transform="matrix(0.9702 0.2424 -0.2424 0.9702 34.8782 -48.2432)" class="st24" cx="213.5" cy="117.6" rx="3.4" ry="6.1"/>
		
			<ellipse transform="matrix(-0.9702 0.2424 -0.2424 -0.9702 338.1637 193.6766)" class="st24" cx="157.2" cy="117.6" rx="3.4" ry="6.1"/>
		<path class="st24" d="M213.1,111.5c0,15.3-12.4,39.7-27.8,39.7s-27.8-24.3-27.8-39.7s12.4-27.8,27.8-27.8S213.1,96.2,213.1,111.5z
			"/>
		<path class="st25" d="M157.6,103c0-10.6,12.4-19.3,27.8-19.3s27.8,8.6,27.8,19.3"/>
	</g>
	<path class="st42" d="M195.9,141.8c0,4.8-4.6-1.5-10.2-1.5c-5.6,0-10.2,6.3-10.2,1.5c0-4.8,4.6-8.7,10.2-8.7
		C191.3,133.1,195.9,137,195.9,141.8z"/>
</g>
<g>
	<line class="st43" x1="127.9" y1="37.4" x2="127.9" y2="141.4"/>
	<line class="st43" x1="137.9" y1="37.4" x2="137.9" y2="135.4"/>
	<line class="st43" x1="147.9" y1="37.4" x2="147.9" y2="153.4"/>
	<line class="st43" x1="217.9" y1="37.4" x2="217.9" y2="141.4"/>
	<line class="st43" x1="165.9" y1="37.4" x2="165.9" y2="129.4"/>
	<line class="st43" x1="175.9" y1="37.4" x2="175.9" y2="110.4"/>
	<line class="st43" x1="185.9" y1="37.4" x2="185.9" y2="101.4"/>
	<line class="st43" x1="194.9" y1="37.4" x2="194.9" y2="141.4"/>
	<line class="st43" x1="204.9" y1="37.4" x2="204.9" y2="122.4"/>
	<line class="st43" x1="213.9" y1="37.4" x2="213.9" y2="164.4"/>
	<line class="st43" x1="223.9" y1="37.4" x2="223.9" y2="141.4"/>
	<line class="st43" x1="232.9" y1="37.4" x2="232.9" y2="178.4"/>
	<line class="st43" x1="242.9" y1="37.4" x2="242.9" y2="141.4"/>
	<pattern  id="SVGID_3_" xlink:href="#New_Pattern_Swatch_5" patternTransform="matrix(0.8838 0 0 0.8838 475.2519 -1870.2395)">
	</pattern>
	<line style="fill:none;stroke:url(#SVGID_3_);stroke-miterlimit:10;" x1="129.9" y1="37.4" x2="129.9" y2="141.4"/>
	<pattern  id="SVGID_4_" xlink:href="#New_Pattern_Swatch_5" patternTransform="matrix(0.8838 0 0 0.8838 475.2519 -1870.2395)">
	</pattern>
	<line style="fill:none;stroke:url(#SVGID_4_);stroke-miterlimit:10;" x1="139.9" y1="37.4" x2="139.9" y2="135.4"/>
	<pattern  id="SVGID_5_" xlink:href="#New_Pattern_Swatch_5" patternTransform="matrix(0.8838 0 0 0.8838 475.2519 -1870.2395)">
	</pattern>
	<line style="fill:none;stroke:url(#SVGID_5_);stroke-miterlimit:10;" x1="148.9" y1="37.4" x2="148.9" y2="153.4"/>
	<pattern  id="SVGID_6_" xlink:href="#New_Pattern_Swatch_5" patternTransform="matrix(0.8838 0 0 0.8838 475.2519 -1870.2395)">
	</pattern>
	<line style="fill:none;stroke:url(#SVGID_6_);stroke-miterlimit:10;" x1="158.9" y1="37.4" x2="158.9" y2="141.4"/>
	<pattern  id="SVGID_7_" xlink:href="#New_Pattern_Swatch_5" patternTransform="matrix(0.8838 0 0 0.8838 475.2519 -1870.2395)">
	</pattern>
	<line style="fill:none;stroke:url(#SVGID_7_);stroke-miterlimit:10;" x1="167.9" y1="37.4" x2="167.9" y2="129.4"/>
	<pattern  id="SVGID_8_" xlink:href="#New_Pattern_Swatch_5" patternTransform="matrix(0.8838 0 0 0.8838 475.2519 -1870.2395)">
	</pattern>
	<line style="fill:none;stroke:url(#SVGID_8_);stroke-miterlimit:10;" x1="177.9" y1="37.4" x2="177.9" y2="110.4"/>
	<pattern  id="SVGID_9_" xlink:href="#New_Pattern_Swatch_5" patternTransform="matrix(0.8838 0 0 0.8838 475.2519 -1870.2395)">
	</pattern>
	<line style="fill:none;stroke:url(#SVGID_9_);stroke-miterlimit:10;" x1="186.9" y1="37.4" x2="186.9" y2="101.4"/>
	<pattern  id="SVGID_10_" xlink:href="#New_Pattern_Swatch_5" patternTransform="matrix(0.8838 0 0 0.8838 475.2519 -1870.2395)">
	</pattern>
	<line style="fill:none;stroke:url(#SVGID_10_);stroke-miterlimit:10;" x1="196.9" y1="37.4" x2="196.9" y2="141.4"/>
	<pattern  id="SVGID_11_" xlink:href="#New_Pattern_Swatch_5" patternTransform="matrix(0.8838 0 0 0.8838 475.2519 -1870.2395)">
	</pattern>
	<line style="fill:none;stroke:url(#SVGID_11_);stroke-miterlimit:10;" x1="206.9" y1="37.4" x2="206.9" y2="122.4"/>
	<pattern  id="SVGID_12_" xlink:href="#New_Pattern_Swatch_5" patternTransform="matrix(0.8838 0 0 0.8838 475.2519 -1870.2395)">
	</pattern>
	<line style="fill:none;stroke:url(#SVGID_12_);stroke-miterlimit:10;" x1="215.9" y1="37.4" x2="215.9" y2="164.4"/>
	<pattern  id="SVGID_13_" xlink:href="#New_Pattern_Swatch_5" patternTransform="matrix(0.8838 0 0 0.8838 475.2519 -1870.2395)">
	</pattern>
	<line class="st44" x1="224.9" y1="37.4" x2="224.9" y2="141.4"/>
	<pattern  id="SVGID_14_" xlink:href="#New_Pattern_Swatch_5" patternTransform="matrix(0.8838 0 0 0.8838 475.2519 -1870.2395)">
	</pattern>
	<line class="st45" x1="234.9" y1="37.4" x2="234.9" y2="178.4"/>
	<pattern  id="SVGID_15_" xlink:href="#New_Pattern_Swatch_5" patternTransform="matrix(0.8838 0 0 0.8838 475.2519 -1870.2395)">
	</pattern>
	<line class="st46" x1="244.9" y1="37.4" x2="244.9" y2="141.4"/>
	<line class="st57" x1="133.9" y1="37.4" x2="133.9" y2="141.4"/>
	<line class="st57" x1="141.9" y1="37.4" x2="141.9" y2="135.4"/>
	<line class="st57" x1="151.9" y1="37.4" x2="151.9" y2="153.4"/>
	<line class="st57" x1="160.9" y1="37.4" x2="160.9" y2="141.4"/>
	<line class="st57" x1="169.9" y1="37.4" x2="169.9" y2="129.4"/>
	<line class="st57" x1="178.9" y1="37.4" x2="178.9" y2="110.4"/>
	<line class="st57" x1="186.9" y1="37.4" x2="186.9" y2="101.4"/>
	<line class="st57" x1="196.9" y1="37.4" x2="196.9" y2="141.4"/>
	<line class="st57" x1="205.9" y1="37.4" x2="205.9" y2="122.4"/>
	<line class="st57" x1="213.9" y1="37.4" x2="213.9" y2="164.4"/>
	<line class="st57" x1="223.9" y1="37.4" x2="223.9" y2="141.4"/>
	<line class="st57" x1="232.9" y1="37.4" x2="232.9" y2="178.4"/>
	<line class="st57" x1="240.9" y1="37.4" x2="240.9" y2="141.4"/>
	<line class="st58" x1="129.9" y1="37.4" x2="129.9" y2="148.4"/>
	<line class="st58" x1="138.9" y1="37.4" x2="138.9" y2="142.4"/>
	<line class="st58" x1="147.9" y1="37.4" x2="147.9" y2="161.4"/>
	<line class="st58" x1="156.9" y1="37.4" x2="156.9" y2="148.4"/>
	<line class="st58" x1="164.9" y1="37.4" x2="164.9" y2="135.4"/>
	<line class="st58" x1="172.9" y1="37.4" x2="172.9" y2="115.4"/>
	<line class="st58" x1="180.9" y1="37.4" x2="180.9" y2="105.4"/>
	<line class="st58" x1="189.9" y1="37.4" x2="189.9" y2="148.4"/>
	<line class="st58" x1="198.9" y1="37.4" x2="198.9" y2="128.4"/>
	<line class="st58" x1="206.9" y1="37.4" x2="206.9" y2="173.4"/>
	<line class="st58" x1="215.9" y1="37.4" x2="215.9" y2="148.4"/>
	<line class="st58" x1="224.9" y1="37.4" x2="224.9" y2="187.4"/>
	<line class="st58" x1="232.9" y1="37.4" x2="232.9" y2="148.4"/>
	<line class="st59" x1="133.9" y1="39.4" x2="133.9" y2="143.4"/>
	<line class="st59" x1="142.9" y1="39.4" x2="142.9" y2="137.4"/>
	<line class="st59" x1="151.9" y1="39.4" x2="151.9" y2="155.4"/>
	<line class="st59" x1="160.9" y1="37.4" x2="160.9" y2="143.4"/>
	<line class="st59" x1="168.9" y1="39.4" x2="168.9" y2="131.4"/>
	<line class="st59" x1="177.9" y1="39.4" x2="177.9" y2="111.4"/>
	<line class="st59" x1="186.9" y1="37.4" x2="186.9" y2="102.4"/>
	<line class="st59" x1="195.9" y1="37.4" x2="195.9" y2="143.4"/>
	<line class="st59" x1="204.9" y1="39.4" x2="204.9" y2="124.4"/>
	<line class="st59" x1="212.9" y1="39.4" x2="212.9" y2="166.4"/>
	<line class="st59" x1="221.9" y1="39.4" x2="221.9" y2="143.4"/>
	<line class="st59" x1="230.9" y1="37.4" x2="230.9" y2="179.4"/>
	<line class="st59" x1="239.9" y1="39.4" x2="239.9" y2="143.4"/>
	<line class="st43" x1="137.9" y1="37.4" x2="137.9" y2="134.4"/>
	<line class="st43" x1="146.9" y1="37.4" x2="146.9" y2="128.4"/>
	<line class="st43" x1="155.9" y1="37.4" x2="155.9" y2="145.4"/>
	<line class="st43" x1="164.9" y1="37.4" x2="164.9" y2="134.4"/>
	<line class="st43" x1="171.9" y1="37.4" x2="171.9" y2="123.4"/>
	<line class="st43" x1="180.9" y1="37.4" x2="180.9" y2="104.4"/>
	<line class="st43" x1="189.9" y1="37.4" x2="189.9" y2="96.4"/>
	<line class="st43" x1="198.9" y1="37.4" x2="198.9" y2="134.4"/>
	<line class="st43" x1="207.9" y1="37.4" x2="207.9" y2="116.4"/>
	<line class="st43" x1="215.9" y1="37.4" x2="215.9" y2="156.4"/>
	<line class="st43" x1="232.9" y1="37.4" x2="232.9" y2="168.4"/>
	<line class="st43" x1="240.9" y1="37.4" x2="240.9" y2="134.4"/>
	<line class="st43" x1="127.9" y1="37.4" x2="127.9" y2="145.4"/>
	<line class="st43" x1="137.9" y1="37.4" x2="137.9" y2="139.4"/>
	<line class="st43" x1="147.9" y1="37.4" x2="147.9" y2="157.4"/>
	<line class="st43" x1="156.9" y1="37.4" x2="156.9" y2="145.4"/>
	<line class="st43" x1="136.9" y1="37.4" x2="136.9" y2="133.4"/>
	<line class="st43" x1="174.9" y1="37.4" x2="174.9" y2="112.4"/>
	<line class="st43" x1="183.9" y1="37.4" x2="183.9" y2="103.4"/>
	<line class="st43" x1="193.9" y1="37.4" x2="193.9" y2="145.4"/>
	<line class="st43" x1="202.9" y1="37.4" x2="202.9" y2="125.4"/>
	<line class="st43" x1="210.9" y1="37.4" x2="210.9" y2="169.4"/>
	<line class="st43" x1="220.9" y1="37.4" x2="220.9" y2="145.4"/>
	<line class="st43" x1="229.9" y1="37.4" x2="229.9" y2="183.4"/>
	<line class="st43" x1="239.9" y1="37.4" x2="239.9" y2="145.4"/>
	<pattern  id="SVGID_16_" xlink:href="#New_Pattern_Swatch_5" patternTransform="matrix(0.8536 0 0 0.9149 327.132 -1788.4615)">
	</pattern>
	<line class="st47" x1="129.9" y1="37.4" x2="129.9" y2="145.4"/>
	<pattern  id="SVGID_17_" xlink:href="#New_Pattern_Swatch_5" patternTransform="matrix(0.8536 0 0 0.9149 327.132 -1788.4615)">
	</pattern>
	<line class="st48" x1="139.9" y1="37.4" x2="139.9" y2="139.4"/>
	<pattern  id="SVGID_18_" xlink:href="#New_Pattern_Swatch_5" patternTransform="matrix(0.8536 0 0 0.9149 327.132 -1788.4615)">
	</pattern>
	<line class="st49" x1="148.9" y1="37.4" x2="148.9" y2="157.4"/>
	<pattern  id="SVGID_19_" xlink:href="#New_Pattern_Swatch_5" patternTransform="matrix(0.8536 0 0 0.9149 395.1811 -1788.4615)">
	</pattern>
	<line class="st50" x1="225.9" y1="37.4" x2="225.9" y2="145.4"/>
	<pattern  id="SVGID_20_" xlink:href="#New_Pattern_Swatch_5" patternTransform="matrix(0.8536 0 0 0.9149 327.132 -1788.4615)">
	</pattern>
	<line class="st51" x1="166.9" y1="37.4" x2="166.9" y2="133.4"/>
	<pattern  id="SVGID_21_" xlink:href="#New_Pattern_Swatch_5" patternTransform="matrix(0.8536 0 0 0.9149 327.132 -1788.4615)">
	</pattern>
	<line class="st52" x1="176.9" y1="37.4" x2="176.9" y2="112.4"/>
	<pattern  id="SVGID_22_" xlink:href="#New_Pattern_Swatch_5" patternTransform="matrix(0.8536 0 0 0.9149 327.132 -1788.4615)">
	</pattern>
	<line class="st53" x1="185.9" y1="37.4" x2="185.9" y2="103.4"/>
	<pattern  id="SVGID_23_" xlink:href="#New_Pattern_Swatch_5" patternTransform="matrix(0.8536 0 0 0.9149 327.132 -1788.4615)">
	</pattern>
	<line class="st54" x1="194.9" y1="37.4" x2="194.9" y2="145.4"/>
	<pattern  id="SVGID_24_" xlink:href="#New_Pattern_Swatch_5" patternTransform="matrix(0.8536 0 0 0.9149 327.132 -1788.4615)">
	</pattern>
	<line class="st55" x1="203.9" y1="37.4" x2="203.9" y2="125.4"/>
	<pattern  id="SVGID_25_" xlink:href="#New_Pattern_Swatch_5" patternTransform="matrix(0.8536 0 0 0.9149 327.132 -1788.4615)">
	</pattern>
	<line class="st56" x1="212.9" y1="37.4" x2="212.9" y2="169.4"/>
	<pattern  id="SVGID_26_" xlink:href="#New_Pattern_Swatch_5" patternTransform="matrix(0.8536 0 0 0.9149 327.132 -1788.4615)">
	</pattern>
	<line class="st60" x1="222.9" y1="37.4" x2="222.9" y2="145.4"/>
	<pattern  id="SVGID_27_" xlink:href="#New_Pattern_Swatch_5" patternTransform="matrix(0.8536 0 0 0.9149 327.132 -1788.4615)">
	</pattern>
	<line class="st61" x1="231.9" y1="37.4" x2="231.9" y2="183.4"/>
	<pattern  id="SVGID_28_" xlink:href="#New_Pattern_Swatch_5" patternTransform="matrix(0.8536 0 0 0.9149 327.132 -1788.4615)">
	</pattern>
	<line class="st62" x1="240.9" y1="37.4" x2="240.9" y2="145.4"/>
	<line class="st57" x1="133.9" y1="37.4" x2="133.9" y2="145.4"/>
	<line class="st57" x1="141.9" y1="37.4" x2="141.9" y2="139.4"/>
	<line class="st57" x1="151.9" y1="37.4" x2="151.9" y2="157.4"/>
	<line class="st57" x1="159.9" y1="37.4" x2="159.9" y2="145.4"/>
	<line class="st57" x1="168.9" y1="37.4" x2="168.9" y2="133.4"/>
	<line class="st57" x1="177.9" y1="37.4" x2="177.9" y2="112.4"/>
	<line class="st57" x1="185.9" y1="37.4" x2="185.9" y2="103.4"/>
	<line class="st57" x1="194.9" y1="37.4" x2="194.9" y2="145.4"/>
	<line class="st57" x1="202.9" y1="37.4" x2="202.9" y2="125.4"/>
	<line class="st57" x1="210.9" y1="37.4" x2="210.9" y2="169.4"/>
	<line class="st57" x1="220.9" y1="37.4" x2="220.9" y2="145.4"/>
	<line class="st57" x1="228.9" y1="37.4" x2="228.9" y2="183.4"/>
	<line class="st57" x1="237.9" y1="37.4" x2="237.9" y2="145.4"/>
	<line class="st58" x1="129.9" y1="37.4" x2="129.9" y2="152.4"/>
	<line class="st58" x1="138.9" y1="37.4" x2="138.9" y2="146.4"/>
	<line class="st58" x1="147.9" y1="37.4" x2="147.9" y2="165.4"/>
	<line class="st58" x1="155.9" y1="37.4" x2="155.9" y2="152.4"/>
	<line class="st58" x1="163.9" y1="37.4" x2="163.9" y2="139.4"/>
	<line class="st58" x1="171.9" y1="37.4" x2="171.9" y2="118.4"/>
	<line class="st58" x1="179.9" y1="37.4" x2="179.9" y2="108.4"/>
	<line class="st58" x1="187.9" y1="37.4" x2="187.9" y2="152.4"/>
	<line class="st58" x1="196.9" y1="37.4" x2="196.9" y2="132.4"/>
	<line class="st58" x1="203.9" y1="37.4" x2="203.9" y2="178.4"/>
	<line class="st58" x1="212.9" y1="37.4" x2="212.9" y2="152.4"/>
	<line class="st58" x1="221.9" y1="37.4" x2="221.9" y2="193.4"/>
	<line class="st58" x1="229.9" y1="37.4" x2="229.9" y2="152.4"/>
	<line class="st59" x1="133.9" y1="37.4" x2="133.9" y2="147.4"/>
	<line class="st59" x1="142.9" y1="37.4" x2="142.9" y2="140.4"/>
	<line class="st59" x1="151.9" y1="37.4" x2="151.9" y2="159.4"/>
	<line class="st59" x1="200.9" y1="37.4" x2="200.9" y2="147.4"/>
	<line class="st59" x1="167.9" y1="37.4" x2="167.9" y2="134.4"/>
	<line class="st59" x1="176.9" y1="37.4" x2="176.9" y2="114.4"/>
	<line class="st59" x1="184.9" y1="37.4" x2="184.9" y2="105.4"/>
	<line class="st59" x1="194.9" y1="37.4" x2="194.9" y2="147.4"/>
	<line class="st59" x1="202.9" y1="37.4" x2="202.9" y2="126.4"/>
	<line class="st59" x1="209.9" y1="37.4" x2="209.9" y2="171.4"/>
	<line class="st59" x1="218.9" y1="37.4" x2="218.9" y2="147.4"/>
	<line class="st59" x1="227.9" y1="37.4" x2="227.9" y2="185.4"/>
	<line class="st59" x1="235.9" y1="37.4" x2="235.9" y2="147.4"/>
	<line class="st43" x1="137.9" y1="37.4" x2="137.9" y2="138.4"/>
	<line class="st43" x1="146.9" y1="37.4" x2="146.9" y2="132.4"/>
	<line class="st43" x1="154.9" y1="37.4" x2="154.9" y2="148.4"/>
	<line class="st43" x1="131.9" y1="37.4" x2="131.9" y2="138.4"/>
	<line class="st43" x1="171.9" y1="37.4" x2="171.9" y2="125.4"/>
	<line class="st43" x1="179.9" y1="37.4" x2="179.9" y2="107.4"/>
	<line class="st43" x1="187.9" y1="37.4" x2="187.9" y2="98.4"/>
	<line class="st43" x1="196.9" y1="37.4" x2="196.9" y2="138.4"/>
	<line class="st43" x1="204.9" y1="37.4" x2="204.9" y2="118.4"/>
	<line class="st43" x1="212.9" y1="37.4" x2="212.9" y2="160.4"/>
	<line class="st43" x1="221.9" y1="37.4" x2="221.9" y2="138.4"/>
	<line class="st43" x1="229.9" y1="37.4" x2="229.9" y2="172.4"/>
	<line class="st43" x1="237.9" y1="37.4" x2="237.9" y2="138.4"/>
	<polygon class="st73" points="131.1,130.8 132.9,128.4 132.1,131.3 136,130.8 132.4,132.4 135.1,135.1 131.7,133.2 131.1,136.8 
		130.6,133.2 127.4,135.1 129.9,132.4 125.5,131.1 130.1,131.3 129,127.5 	"/>
	<polygon class="st73" points="150.6,121.1 152.3,118.7 151.5,121.6 155.5,121.1 151.8,122.6 154.5,125.3 151.1,123.5 150.6,127.1 
		150,123.5 146.8,125.3 149.3,122.6 145,121.4 149.6,121.6 148.4,117.8 	"/>
	<polygon class="st73" points="140.8,111.4 142.6,109 141.8,111.8 145.8,111.4 142.1,112.9 144.8,115.6 141.4,113.8 140.8,117.4 
		140.3,113.8 137.1,115.6 139.6,112.9 135.3,111.6 139.8,111.8 138.7,108.1 	"/>
	<polygon class="st73" points="160.3,91.9 162,89.5 161.3,92.4 165.2,91.9 161.5,93.5 164.3,96.2 160.8,94.3 160.3,98 159.7,94.3 
		156.5,96.2 159,93.5 154.7,92.2 159.3,92.4 158.1,88.6 	"/>
	<polygon class="st73" points="155,82.2 156.7,79.8 156,82.7 159.9,82.2 156.2,83.8 159,86.5 155.5,84.6 155,88.2 154.4,84.6 
		151.2,86.5 153.7,83.8 149.4,82.5 154,82.7 152.8,78.9 	"/>
	<polygon class="st73" points="135.5,82.2 137.3,79.8 136.5,82.7 140.5,82.2 136.8,83.8 139.5,86.5 136.1,84.6 135.5,88.2 135,84.6 
		131.8,86.5 134.3,83.8 130,82.5 134.5,82.7 133.4,78.9 	"/>
	<polygon class="st73" points="145.3,72.5 147,70.1 146.2,73 150.2,72.5 146.5,74 149.2,76.7 145.8,74.9 145.3,78.5 144.7,74.9 
		141.5,76.7 144,74 139.7,72.8 144.3,73 143.1,69.2 	"/>
	<polygon class="st73" points="155,150.3 156.7,147.9 156,150.7 159.9,150.3 156.2,151.8 159,154.5 155.5,152.7 155,156.3 
		154.4,152.7 151.2,154.5 153.7,151.8 149.4,150.5 154,150.7 152.8,146.9 	"/>
	<polygon class="st73" points="147,166.2 148.8,163.8 148,166.6 152,166.2 148.3,167.7 151,170.4 147.6,168.6 147,172.2 
		146.5,168.6 143.3,170.4 145.8,167.7 141.5,166.4 146,166.6 144.9,162.8 	"/>
	<polygon class="st73" points="205.4,176.8 207.1,174.4 206.3,177.2 210.3,176.8 206.6,178.3 209.3,181 205.9,179.2 205.4,182.8 
		204.8,179.2 201.6,181 204.1,178.3 199.8,177 204.4,177.2 203.2,173.5 	"/>
	<polygon class="st73" points="215.1,157.3 216.8,154.9 216.1,157.8 220,157.3 216.3,158.9 219.1,161.6 215.6,159.7 215.1,163.4 
		214.5,159.7 211.3,161.6 213.8,158.9 209.5,157.6 214.1,157.8 212.9,154 	"/>
	<polygon class="st73" points="224.8,167 226.5,164.6 225.8,167.5 229.7,167.1 226,168.6 228.8,171.3 225.3,169.5 224.8,173.1 
		224.2,169.5 221.1,171.3 223.6,168.6 219.2,167.3 223.8,167.5 222.6,163.7 	"/>
	<polygon class="st73" points="234.5,176.8 236.3,174.4 235.5,177.2 239.4,176.8 235.8,178.3 238.5,181 235.1,179.2 234.5,182.8 
		234,179.2 230.8,181 233.3,178.3 228.9,177 233.5,177.2 232.4,173.5 	"/>
	<polygon class="st73" points="244.2,157.3 246,154.9 245.2,157.8 249.2,157.3 245.5,158.9 248.2,161.6 244.8,159.7 244.2,163.4 
		243.7,159.7 240.5,161.6 243,158.9 238.7,157.6 243.2,157.8 242.1,154 	"/>
	<polygon class="st73" points="234.5,147.6 236.3,145.2 235.5,148.1 239.4,147.6 235.8,149.1 238.5,151.9 235.1,150 234.5,153.6 
		234,150 230.8,151.9 233.3,149.1 228.9,147.9 233.5,148.1 232.4,144.3 	"/>
	<polygon class="st73" points="224.8,128.2 226.5,125.8 225.8,128.6 229.7,128.2 226,129.7 228.8,132.4 225.3,130.6 224.8,134.2 
		224.2,130.6 221.1,132.4 223.6,129.7 219.2,128.4 223.8,128.6 222.6,124.8 	"/>
	<polygon class="st73" points="215.1,118.4 216.8,116 216.1,118.9 220,118.5 216.3,120 219.1,122.7 215.6,120.8 215.1,124.5 
		214.5,120.8 211.3,122.7 213.8,120 209.5,118.7 214.1,118.9 212.9,115.1 	"/>
	<polygon class="st73" points="205.4,128.2 207.1,125.8 206.3,128.6 210.3,128.2 206.6,129.7 209.3,132.4 205.9,130.6 205.4,134.2 
		204.8,130.6 201.6,132.4 204.1,129.7 199.8,128.4 204.4,128.6 203.2,124.8 	"/>
	<polygon class="st73" points="195.6,147.6 197.4,145.2 196.6,148.1 200.6,147.6 196.9,149.1 199.6,151.9 196.2,150 195.6,153.6 
		195.1,150 191.9,151.9 194.4,149.1 190.1,147.9 194.6,148.1 193.5,144.3 	"/>
	<polygon class="st73" points="188.6,118.4 190.3,116 189.6,118.9 193.5,118.5 189.8,120 192.5,122.7 189.1,120.8 188.6,124.5 
		188,120.8 184.8,122.7 187.3,120 183,118.7 187.6,118.9 186.4,115.1 	"/>
	<polygon class="st73" points="185,104.3 186.8,101.9 186,104.8 190,104.3 186.3,105.8 189,108.6 185.6,106.7 185,110.3 
		184.5,106.7 181.3,108.6 183.8,105.8 179.5,104.6 184,104.8 182.9,101 	"/>
	<polygon class="st73" points="194.7,84.9 196.5,82.5 195.7,85.3 199.7,84.9 196,86.4 198.7,89.1 195.3,87.3 194.7,90.9 194.2,87.3 
		191,89.1 193.5,86.4 189.2,85.1 193.8,85.3 192.6,81.5 	"/>
	<polygon class="st73" points="204.5,94.6 206.2,92.2 205.5,95.1 209.4,94.6 205.7,96.1 208.4,98.8 205,97 204.5,100.6 203.9,97 
		200.7,98.8 203.2,96.1 198.9,94.8 203.5,95.1 202.3,91.3 	"/>
	<polygon class="st73" points="223.9,84.9 225.7,82.5 224.9,85.3 228.8,84.9 225.1,86.4 227.9,89.1 224.5,87.3 223.9,90.9 
		223.4,87.3 220.2,89.1 222.7,86.4 218.3,85.1 222.9,85.3 221.8,81.5 	"/>
	<polygon class="st73" points="233.6,104.3 235.4,101.9 234.6,104.8 238.6,104.3 234.9,105.8 237.6,108.6 234.2,106.7 233.6,110.3 
		233.1,106.7 229.9,108.6 232.4,105.8 228.1,104.6 232.6,104.8 231.5,101 	"/>
	<polygon class="st73" points="245.1,122 246.9,119.6 246.1,122.4 250,122 246.4,123.5 249.1,126.2 245.7,124.4 245.1,128 
		244.6,124.4 241.4,126.2 243.9,123.5 239.6,122.2 244.1,122.4 243,118.7 	"/>
	<polygon class="st73" points="245.1,63.6 246.9,61.2 246.1,64.1 250,63.7 246.4,65.2 249.1,67.9 245.7,66.1 245.1,69.7 244.6,66.1 
		241.4,67.9 243.9,65.2 239.6,63.9 244.1,64.1 243,60.3 	"/>
	<polygon class="st73" points="237.2,78.7 238.9,76.3 238.2,79.1 242.1,78.7 238.4,80.2 241.1,82.9 237.7,81.1 237.2,84.7 
		236.6,81.1 233.4,82.9 235.9,80.2 231.6,78.9 236.2,79.1 235,75.4 	"/>
	<polygon class="st73" points="208,68.9 209.7,66.6 209,69.4 212.9,69 209.2,70.5 212,73.2 208.6,71.4 208,75 207.5,71.4 
		204.3,73.2 206.8,70.5 202.4,69.2 207,69.4 205.8,65.6 	"/>
	<polygon class="st73" points="217.7,49.5 219.5,47.1 218.7,50 222.7,49.5 219,51.1 221.7,53.8 218.3,51.9 217.7,55.5 217.2,51.9 
		214,53.8 216.5,51.1 212.2,49.8 216.7,50 215.6,46.2 	"/>
	<polygon class="st73" points="240.7,41.5 242.4,39.2 241.7,42 245.6,41.6 241.9,43.1 244.7,45.8 241.3,44 240.7,47.6 240.2,44 
		237,45.8 239.5,43.1 235.1,41.8 239.7,42 238.5,38.2 	"/>
	<polygon class="st73" points="192.1,45.1 193.8,42.7 193.1,45.6 197,45.1 193.3,46.6 196.1,49.3 192.6,47.5 192.1,51.1 191.5,47.5 
		188.4,49.3 190.9,46.6 186.5,45.4 191.1,45.6 189.9,41.8 	"/>
	<polygon class="st73" points="182.4,64.5 184.1,62.1 183.4,65 187.3,64.5 183.6,66.1 186.4,68.8 182.9,66.9 182.4,70.6 181.8,66.9 
		178.6,68.8 181.1,66.1 176.8,64.8 181.4,65 180.2,61.2 	"/>
	<polygon class="st73" points="176.2,83.1 177.9,80.7 177.2,83.6 181.1,83.1 177.4,84.6 180.2,87.3 176.7,85.5 176.2,89.1 
		175.6,85.5 172.5,87.3 175,84.6 170.6,83.4 175.2,83.6 174,79.8 	"/>
	<polygon class="st73" points="166.5,63.6 168.2,61.2 167.5,64.1 171.4,63.7 167.7,65.2 170.4,67.9 167,66.1 166.5,69.7 165.9,66.1 
		162.7,67.9 165.2,65.2 160.9,63.9 165.5,64.1 164.3,60.3 	"/>
	<polygon class="st73" points="176.2,53.9 177.9,51.5 177.2,54.4 181.1,53.9 177.4,55.5 180.2,58.2 176.7,56.3 176.2,60 175.6,56.3 
		172.5,58.2 175,55.5 170.6,54.2 175.2,54.4 174,50.6 	"/>
	<polygon class="st73" points="156.7,53.9 158.5,51.5 157.7,54.4 161.7,53.9 158,55.5 160.7,58.2 157.3,56.3 156.7,60 156.2,56.3 
		153,58.2 155.5,55.5 151.2,54.2 155.8,54.4 154.6,50.6 	"/>
	<polygon class="st73" points="127.6,42.4 129.3,40 128.6,42.9 132.5,42.4 128.8,44 131.6,46.7 128.1,44.8 127.6,48.5 127,44.8 
		123.8,46.7 126.3,44 122,42.7 126.6,42.9 125.4,39.1 	"/>
	<polygon class="st73" points="137.3,53.9 139,51.5 138.3,54.4 142.2,53.9 138.5,55.5 141.3,58.2 137.9,56.3 137.3,60 136.8,56.3 
		133.6,58.2 136.1,55.5 131.7,54.2 136.3,54.4 135.1,50.6 	"/>
	<polygon class="st73" points="150.6,40.7 152.3,38.3 151.5,41.1 155.5,40.7 151.8,42.2 154.5,44.9 151.1,43.1 150.6,46.7 150,43.1 
		146.8,44.9 149.3,42.2 145,40.9 149.6,41.1 148.4,37.4 	"/>
	<polygon class="st73" points="126.7,99 128.4,96.6 127.7,99.5 131.6,99 127.9,100.5 130.7,103.3 127.2,101.4 126.7,105 
		126.1,101.4 123,103.3 125.5,100.5 121.1,99.3 125.7,99.5 124.5,95.7 	"/>
	<polygon class="st73" points="245.1,93.7 246.9,91.3 246.1,94.2 250,93.7 246.4,95.2 249.1,98 245.7,96.1 245.1,99.7 244.6,96.1 
		241.4,98 243.9,95.2 239.6,94 244.1,94.2 243,90.4 	"/>
	<polygon class="st73" points="166.5,128.2 168.2,125.8 167.5,128.6 171.4,128.2 167.7,129.7 170.4,132.4 167,130.6 166.5,134.2 
		165.9,130.6 162.7,132.4 165.2,129.7 160.9,128.4 165.5,128.6 164.3,124.8 	"/>
</g>
<pattern  id="SVGID_29_" xlink:href="#New_Pattern_Swatch_3" patternTransform="matrix(0.7201 0 0 0.8838 -1792.4081 -1571.0811)">
</pattern>
<path style="fill:url(#SVGID_29_);" d="M-0.4,38.9h371.6V0H27.5C12.1,0-0.4,12.5-0.4,27.9V38.9z"/>
<rect x="27.7" y="11.5" class="st0" width="177.1" height="15.9"/>
<text transform="matrix(1 0 0 1 27.6668 23.9693)" class="st7 st75 st76">LAUGH MANIACALLY</text>
</svg>
