<?xml version="1.0" encoding="utf-8"?>
<!-- Generator: Adobe Illustrator 19.1.0, SVG Export Plug-In . SVG Version: 6.00 Build 0)  -->
<svg version="1.1" id="Youtube_w_x2F__circle" xmlns="http://www.w3.org/2000/svg" xmlns:xlink="http://www.w3.org/1999/xlink"
	 x="0px" y="0px" viewBox="-389 291 20 20" style="enable-background:new -389 291 20 20;" xml:space="preserve">
<style type="text/css">
	.st0{fill:#F7E7D0;}
</style>
<path class="st0" d="M-377.4,300.8l-2.2-1c-0.2-0.1-0.4,0-0.4,0.2v2c0,0.2,0.2,0.3,0.4,0.2l2.2-1
	C-377.2,301.1-377.2,300.9-377.4,300.8z M-379,291.4c-5.3,0-9.6,4.3-9.6,9.6s4.3,9.6,9.6,9.6s9.6-4.3,9.6-9.6
	S-373.7,291.4-379,291.4z M-379,304.9c-4.9,0-5-0.4-5-3.9s0.1-3.9,5-3.9s5,0.4,5,3.9S-374.1,304.9-379,304.9z"/>
</svg>
